<svg xmlns="http://www.w3.org/2000/svg">
	<symbol id="icon--search" viewBox="0 0 25 25">
    <g fill-rule="evenodd">
        <path d="M18.2738636,18.2738636 C14.1733585,22.3743687 7.52512627,22.3743687 3.4246212,18.2738636 C-0.675883861,14.1733585 -0.675883861,7.52512627 3.4246212,3.4246212 C7.52512627,-0.675883861 14.1733585,-0.675883861 18.2738636,3.4246212 C22.3743687,7.52512627 22.3743687,14.1733585 18.2738636,18.2738636 Z M14.7383297,14.7383297 C16.8862133,12.5904461 16.8862133,9.10803871 14.7383297,6.96015511 C12.5904461,4.8122715 9.10803871,4.8122715 6.96015511,6.96015511 C4.8122715,9.10803871 4.8122715,12.5904461 6.96015511,14.7383297 C9.10803871,16.8862133 12.5904461,16.8862133 14.7383297,14.7383297 Z"></path>
        <polygon points="18.627417 15.0918831 15.0918831 18.627417 21.4558441 24.991378 24.991378 21.4558441"></polygon>
    </g>
	</symbol>
  <symbol id="icon--arrow01" viewBox="0 0 9 13" >
    <polygon fill-rule="evenodd" points="5.5 7 1 2.5 2.5 1 8.5 7 2.5 13 1 11.5"></polygon>
	</symbol>
  <symbol id="icon--close" viewBox="0 0 18 18" >
    <polygon fill-rule="evenodd" points="13.0204162 9.48528137 17.9699993 4.53553391 14.4345828 1 9.48499966 5.94974747 4.53541652 1 1 4.53553391 5.94958313 9.48528137 1 14.4350288 4.53541652 17.9705627 9.48499966 13.0208153 14.4345828 17.9705627 17.9699993 14.4350288"></polygon>
	</symbol>
	<symbol id="icon--toggle-menu" viewBox="0 0 18 15" >
		<path d="M0,0 L18,0 L18,3 L0,3 L0,0 Z M0,6 L18,6 L18,9 L0,9 L0,6 Z M0,12 L18,12 L18,15 L0,15 L0,12 Z" fill-rule="evenodd"></path>
	</symbol>
	<symbol id="icon--arrow02" viewBox="0 0 36 9" >
		<polygon fill-rule="evenodd" points="28.2994669 3 0 3 0 6 28.2994669 6 28.2994669 9 36 4.5 28.2994669 0"></polygon>
	</symbol>
	<symbol id="icon--facebook" viewBox="0 0 18 18" >
		<path d="M12.719,6.181h-2.533V4.521c0-0.624,0.414-0.769,0.705-0.769c0.29,0,1.786,0,1.786,0V1.009L10.216,1
			C7.484,1,6.863,3.045,6.863,4.354v1.828h-1.58v2.824h1.58c0,3.626,0,7.995,0,7.995h3.322c0,0,0-4.412,0-7.995h2.242L12.719,6.181z"
			/>
	</symbol>
	<symbol id="icon--report" viewBox="0 0 48 46" >
		<g fill-rule="evenodd">
        <path d="M42,32 L45,32 L45,18 L42,18 L42,32 Z M39,15 L48,15 L48,35 L39,35 L39,15 Z" fill-rule="evenodd"></path>
        <polygon id="Rectangle-7-Copy-5" transform="translate(43.474874, 34.474874) rotate(-45.000000) translate(-43.474874, -34.474874) " points="40.3106602 31.3106602 46.6390873 37.6390873 40.3106602 37.6390873"></polygon>
        <rect id="Rectangle-8-Copy-14" x="39" y="11" width="9" height="3"></rect>
        <path d="M9,3 L9,37 L33,37 L33,8.24264069 L27.7573593,3 L9,3 Z M6,0 L29,0 L36,7 L36,40 L6,40 L6,0 Z" fill-rule="evenodd"></path>
        <polygon points="28 1 35 8 28 8"></polygon>
        <rect x="12" y="10" width="14" height="3"></rect>
        <rect x="12" y="28" width="14" height="3"></rect>
        <rect x="12" y="16" width="17" height="3"></rect>
        <rect x="12" y="22" width="17" height="3"></rect>
        <polygon fill-rule="evenodd" points="3 43 3 6 0 6 0 46 29 46 29 43"></polygon>
    </g>
	</symbol>
	<symbol id="icon--communication" viewBox="0 0 53 37" >
		<path d="M36,19 L36,22 L31.0006467,22 L39.4725387,22 L44.3888889,27 L46.1158764,22 L47.001762,22 C50.3187059,22 53,19.3150239 53,16.0029381 L53,5.99706188 C53,2.68662575 50.3158651,0 47.0048168,0 L25.9951832,0 C22.6865366,0 20,2.68497606 20,5.99706188 L20,11.0014691 L20,6 L23,6 L23,5.99706188 C23,4.34263522 24.342586,3 25.9951832,3 L47.0048168,3 C48.6581032,3 50,4.34257233 50,5.99706188 L50,16.0029381 C50,17.6598175 48.6602043,19 47.001762,19 L43.9781604,19 L43.1337834,21.444653 L40.7300293,19 L36,19 Z" fill-rule="evenodd"></path>
    <path d="M12.2699707,29 L26.9987066,29 C28.6574802,29 30,27.658535 30,26.002068 L30,14.997932 C30,13.3429275 28.6573165,12 27.0048168,12 L5.99518319,12 C4.34046877,12 3,13.3407807 3,14.997932 L3,26.002068 C3,27.6595255 4.33989321,29 5.99823804,29 L9.02183959,29 L9.86621661,31.444653 L12.2699707,29 Z M33,14.997932 L33,26.002068 C33,29.3165942 30.3131294,32 26.9987066,32 L13.5274613,32 L8.61111111,37 L6.88412363,32 L5.99823804,32 C2.68129409,32 0,29.3146344 0,26.002068 L0,14.997932 C0,11.6834058 2.68413494,9 5.99518319,9 L27.0048168,9 C30.3134634,9 33,11.6853656 33,14.997932 Z" fill-rule="evenodd"></path>
    <circle fill-rule="evenodd" cx="9.5" cy="20.5" r="1.5"></circle>
    <circle fill-rule="evenodd" cx="16.5" cy="20.5" r="1.5"></circle>
    <ellipse fill-rule="evenodd" cx="36.5" cy="11.5" rx="1.5" ry="1.5"></ellipse>
    <circle fill-rule="evenodd" cx="23.5" cy="20.5" r="1.5"></circle>
    <ellipse fill-rule="evenodd" cx="43.5" cy="11.5" rx="1.5" ry="1.5"></ellipse>
	</symbol>
	<symbol id="icon--ICTservice" viewBox="0 0 36 35" >
		<path d="M24,31.8751791 L24,28.5967205 C26.637717,27.285887 28.785887,25.137717 30.0967205,22.5 L29.9981014,22.5 C28.8945804,22.5 28,21.5998238 28,20.507983 L28,13.492017 C28,12.3918564 28.8867064,11.5 29.9981014,11.5 L30.5438068,11.5 L30.5438068,11.5 C28.5567922,6.51945421 23.6894024,3 18,3 C12.3105976,3 7.44320779,6.51945421 5.45619317,11.5 L6.00189865,11.5 C7.10541955,11.5 8,12.4001762 8,13.492017 L8,20.507983 C8,21.6081436 7.11329365,22.5 6.00189865,22.5 L1.99810135,22.5 C0.894580447,22.5 0,21.5998238 0,20.507983 L0,13.492017 C0,12.3918564 0.886706352,11.5 1.99810135,11.5 L2.27116589,11.5 C4.38907834,4.83160818 10.6302979,0 18,0 C25.3697021,0 31.6109217,4.83160818 33.7288341,11.5 L34.0018986,11.5 C35.1054196,11.5 36,12.4001762 36,13.492017 L36,20.507983 C36,21.6081436 35.1132936,22.5 34.0018986,22.5 L33.3751791,22.5 C31.7011981,26.7864406 28.2864406,30.2011981 24,31.8751791 Z M21,32.7279357 C20.0271713,32.9066301 19.0244895,33 18,33 L18,30 C19.0310819,30 20.0351659,29.8844078 21,29.6654754 L21,32.7279357 Z" fill-rule="nonzero"></path>
    <ellipse fill-rule="evenodd" cx="18" cy="32" rx="3" ry="3"></ellipse>
	</symbol>
</svg>
