<svg xmlns="http://www.w3.org/2000/svg">
	<symbol id="icon--search" viewBox="0 0 25 25">
    <g fill-rule="evenodd">
        <path d="M18.2738636,18.2738636 C14.1733585,22.3743687 7.52512627,22.3743687 3.4246212,18.2738636 C-0.675883861,14.1733585 -0.675883861,7.52512627 3.4246212,3.4246212 C7.52512627,-0.675883861 14.1733585,-0.675883861 18.2738636,3.4246212 C22.3743687,7.52512627 22.3743687,14.1733585 18.2738636,18.2738636 Z M14.7383297,14.7383297 C16.8862133,12.5904461 16.8862133,9.10803871 14.7383297,6.96015511 C12.5904461,4.8122715 9.10803871,4.8122715 6.96015511,6.96015511 C4.8122715,9.10803871 4.8122715,12.5904461 6.96015511,14.7383297 C9.10803871,16.8862133 12.5904461,16.8862133 14.7383297,14.7383297 Z"></path>
        <polygon points="18.627417 15.0918831 15.0918831 18.627417 21.4558441 24.991378 24.991378 21.4558441"></polygon>
    </g>
	</symbol>
  <symbol id="icon--arrow01" viewBox="0 0 9 13" >
    <polygon fill-rule="evenodd" points="5.5 7 1 2.5 2.5 1 8.5 7 2.5 13 1 11.5"></polygon>
	</symbol>
  <symbol id="icon--close" viewBox="0 0 18 18" >
    <polygon fill-rule="evenodd" points="13.0204162 9.48528137 17.9699993 4.53553391 14.4345828 1 9.48499966 5.94974747 4.53541652 1 1 4.53553391 5.94958313 9.48528137 1 14.4350288 4.53541652 17.9705627 9.48499966 13.0208153 14.4345828 17.9705627 17.9699993 14.4350288"></polygon>
	</symbol>
	<symbol id="icon--toggle-menu" viewBox="0 0 18 15" >
		<path d="M0,0 L18,0 L18,3 L0,3 L0,0 Z M0,6 L18,6 L18,9 L0,9 L0,6 Z M0,12 L18,12 L18,15 L0,15 L0,12 Z" fill-rule="evenodd"></path>
	</symbol>
</svg>
