<svg xmlns="http://www.w3.org/2000/svg">
	<symbol id="icon--search" viewBox="0 0 25 25">
    <g fill-rule="evenodd">
        <path d="M18.2738636,18.2738636 C14.1733585,22.3743687 7.52512627,22.3743687 3.4246212,18.2738636 C-0.675883861,14.1733585 -0.675883861,7.52512627 3.4246212,3.4246212 C7.52512627,-0.675883861 14.1733585,-0.675883861 18.2738636,3.4246212 C22.3743687,7.52512627 22.3743687,14.1733585 18.2738636,18.2738636 Z M14.7383297,14.7383297 C16.8862133,12.5904461 16.8862133,9.10803871 14.7383297,6.96015511 C12.5904461,4.8122715 9.10803871,4.8122715 6.96015511,6.96015511 C4.8122715,9.10803871 4.8122715,12.5904461 6.96015511,14.7383297 C9.10803871,16.8862133 12.5904461,16.8862133 14.7383297,14.7383297 Z"></path>
        <polygon points="18.627417 15.0918831 15.0918831 18.627417 21.4558441 24.991378 24.991378 21.4558441"></polygon>
    </g>
	</symbol>
</svg>
